<?xml version="1.0" encoding="UTF-8" standalone="no"?>
<svg
   version="1.0"
   width="627.48969"
   height="362.55518"
   viewBox="0 0 627.48969 362.55518"
   id="svg12"
   sodipodi:docname="Integral_as_region_under_curve.svg"
   inkscape:version="1.3.2 (091e20ef0f, 2023-11-25)"
   inkscape:export-filename="Integral_as_region_under_curve.png"
   inkscape:export-xdpi="32"
   inkscape:export-ydpi="32"
   xmlns:inkscape="http://www.inkscape.org/namespaces/inkscape"
   xmlns:sodipodi="http://sodipodi.sourceforge.net/DTD/sodipodi-0.dtd"
   xmlns="http://www.w3.org/2000/svg"
   xmlns:svg="http://www.w3.org/2000/svg"
   xmlns:ns4="http://wanglongqi.github.io/WriteTeX">
  <sodipodi:namedview
     id="namedview12"
     pagecolor="#ffffff"
     bordercolor="#000000"
     borderopacity="0.25"
     inkscape:showpageshadow="2"
     inkscape:pageopacity="0.0"
     inkscape:pagecheckerboard="0"
     inkscape:deskcolor="#d1d1d1"
     inkscape:zoom="0.84950271"
     inkscape:cx="343.14193"
     inkscape:cy="114.18445"
     inkscape:window-width="1920"
     inkscape:window-height="1011"
     inkscape:window-x="0"
     inkscape:window-y="0"
     inkscape:window-maximized="1"
     inkscape:current-layer="g7" />
  <defs
     id="defs1">
    <marker
       style="overflow:visible"
       id="ArrowWide"
       refX="0"
       refY="0"
       orient="auto-start-reverse"
       inkscape:stockid="Wide arrow"
       markerWidth="1"
       markerHeight="1"
       viewBox="0 0 1 1"
       inkscape:isstock="true"
       inkscape:collect="always"
       preserveAspectRatio="xMidYMid">
      <path
         style="fill:none;stroke:context-stroke;stroke-width:1;stroke-linecap:butt"
         d="M 3,-3 0,0 3,3"
         transform="rotate(180,0.125,0)"
         sodipodi:nodetypes="ccc"
         id="path13" />
    </marker>
  </defs>
  <g
     style="fill-rule:evenodd;stroke:#463285;stroke-width:4;stroke-linecap:butt;stroke-linejoin:miter"
     id="g7"
     transform="translate(-48.601338,-277.79552)">
    <path
       style="fill:#e9e9f4;stroke:#6a2450;stroke-width:2.92644"
       d="m 251.09615,369.21528 c 37.36525,7.50267 87.21532,27.72986 132.339,44.59586 67.3288,25.14894 135.19267,43.27539 223.74566,24.12858 l 0.98095,160.8572 -357.06561,-0.66023 z"
       id="path1" />
    <path
       style="fill:#000000;stroke:#463285;stroke-width:2.92644;marker-end:url(#ArrowWide)"
       d="m 81.01734,598.79692 571.10879,0.72025"
       id="path2" />
    <path
       style="fill:#000000;stroke:#463285;stroke-width:2.92644;marker-start:url(#ArrowWide)"
       d="m 134.80905,280.59642 -1.07013,359.74993 v -13.22871"
       id="path3" />
    <path
       style="fill:none;stroke:#463285;stroke-width:2.92644"
       d="m 606.64574,437.93972 c 28.35836,-5.70203 44.32109,-9.78348 69.02317,-17.22613"
       id="path4" />
    <path
       style="fill:none;stroke:#463285;stroke-width:2.92644"
       d="M 49.216742,400.78651 C 104.37285,375.21741 162.0081,352.70941 251.45286,369.15526"
       id="path5" />
    <g
       ns4:text="\(f(x)\)"
       transform="matrix(2.7677808,0,0,2.7677808,-25.067043,115.06502)"
       id="g18"
       style="fill:#463285;stroke:none">
      <g
         fill="#000000"
         fill-opacity="1"
         id="g14"
         style="fill:#463285;stroke:none">
        <path
           d="m 3.65625,-3.984375 h 0.859375 c 0.203125,0 0.296875,0 0.296875,-0.203125 0,-0.109375 -0.09375,-0.109375 -0.265625,-0.109375 H 3.71875 L 3.921875,-5.4375 c 0.046875,-0.203125 0.1875,-0.90625 0.25,-1.03125 0.078125,-0.1875 0.25,-0.34375 0.46875,-0.34375 0.03125,0 0.296875,0 0.484375,0.1875 -0.4375,0.03125 -0.546875,0.390625 -0.546875,0.53125 0,0.234375 0.1875,0.359375 0.375,0.359375 C 5.21875,-5.734375 5.5,-5.96875 5.5,-6.34375 c 0,-0.453125 -0.453125,-0.6875 -0.859375,-0.6875 -0.34375,0 -0.96875,0.1875 -1.265625,1.171875 -0.0625,0.203125 -0.09375,0.3125 -0.328125,1.5625 h -0.6875 c -0.203125,0 -0.3125,0 -0.3125,0.1875 0,0.125 0.09375,0.125 0.28125,0.125 h 0.65625 L 2.25,-0.046875 c -0.1875,0.96875 -0.359375,1.875 -0.875,1.875 -0.046875,0 -0.28125,0 -0.484375,-0.1875 C 1.359375,1.609375 1.453125,1.25 1.453125,1.109375 1.453125,0.875 1.265625,0.75 1.078125,0.75 0.8125,0.75 0.53125,0.984375 0.53125,1.359375 c 0,0.4375 0.4375,0.6875 0.84375,0.6875 0.546875,0 0.953125,-0.59375 1.125,-0.96875 0.328125,-0.625 0.546875,-1.828125 0.5625,-1.90625 z m 0,0"
           transform="translate(178.585,110.99)"
           id="path14"
           style="fill:#463285;stroke:none" />
      </g>
      <g
         fill="#000000"
         fill-opacity="1"
         id="g15"
         style="fill:#463285;stroke:none">
        <path
           d="m 3.296875,2.390625 c 0,-0.03125 0,-0.046875 -0.171875,-0.21875 C 1.890625,0.921875 1.5625,-0.96875 1.5625,-2.5 c 0,-1.734375 0.375,-3.46875 1.609375,-4.703125 0.125,-0.125 0.125,-0.140625 0.125,-0.171875 0,-0.078125 -0.03125,-0.109375 -0.09375,-0.109375 -0.109375,0 -1,0.6875 -1.59375,1.953125 -0.5,1.09375 -0.625,2.203125 -0.625,3.03125 0,0.78125 0.109375,1.984375 0.65625,3.125 C 2.25,1.84375 3.09375,2.5 3.203125,2.5 c 0.0625,0 0.09375,-0.03125 0.09375,-0.109375 z m 0,0"
           transform="translate(184.534,110.99)"
           id="path15"
           style="fill:#463285;stroke:none" />
      </g>
      <g
         fill="#000000"
         fill-opacity="1"
         id="g16"
         style="fill:#463285;stroke:none">
        <path
           d="M 3.328125,-3.015625 C 3.390625,-3.265625 3.625,-4.1875 4.3125,-4.1875 c 0.046875,0 0.296875,0 0.5,0.125 C 4.53125,-4 4.34375,-3.765625 4.34375,-3.515625 c 0,0.15625 0.109375,0.34375 0.375,0.34375 0.21875,0 0.53125,-0.171875 0.53125,-0.578125 0,-0.515625 -0.578125,-0.65625 -0.921875,-0.65625 -0.578125,0 -0.921875,0.53125 -1.046875,0.75 -0.25,-0.65625 -0.78125,-0.75 -1.078125,-0.75 -1.03125,0 -1.609375,1.28125 -1.609375,1.53125 0,0.109375 0.109375,0.109375 0.125,0.109375 0.078125,0 0.109375,-0.03125 0.125,-0.109375 0.34375,-1.0625 1,-1.3125 1.34375,-1.3125 0.1875,0 0.53125,0.09375 0.53125,0.671875 0,0.3125 -0.171875,0.96875 -0.53125,2.375 -0.15625,0.609375 -0.515625,1.03125 -0.953125,1.03125 -0.0625,0 -0.28125,0 -0.5,-0.125 0.25,-0.0625 0.46875,-0.265625 0.46875,-0.546875 0,-0.265625 -0.21875,-0.34375 -0.359375,-0.34375 -0.3125,0 -0.546875,0.25 -0.546875,0.578125 0,0.453125 0.484375,0.65625 0.921875,0.65625 0.671875,0 1.03125,-0.703125 1.046875,-0.75 0.125,0.359375 0.484375,0.75 1.078125,0.75 1.03125,0 1.59375,-1.28125 1.59375,-1.53125 0,-0.109375 -0.078125,-0.109375 -0.109375,-0.109375 -0.09375,0 -0.109375,0.046875 -0.140625,0.109375 -0.328125,1.078125 -1,1.3125 -1.3125,1.3125 -0.390625,0 -0.546875,-0.3125 -0.546875,-0.65625 0,-0.21875 0.046875,-0.4375 0.15625,-0.875 z m 0,0"
           transform="translate(188.409,110.99)"
           id="path16"
           style="fill:#463285;stroke:none" />
      </g>
      <g
         fill="#000000"
         fill-opacity="1"
         id="g17"
         style="fill:#463285;stroke:none">
        <path
           d="m 2.875,-2.5 c 0,-0.765625 -0.109375,-1.96875 -0.65625,-3.109375 -0.59375,-1.21875 -1.453125,-1.875 -1.546875,-1.875 -0.0625,0 -0.109375,0.046875 -0.109375,0.109375 0,0.03125 0,0.046875 0.1875,0.234375 0.984375,0.984375 1.546875,2.5625 1.546875,4.640625 0,1.71875 -0.359375,3.46875 -1.59375,4.71875 C 0.5625,2.34375 0.5625,2.359375 0.5625,2.390625 0.5625,2.453125 0.609375,2.5 0.671875,2.5 0.765625,2.5 1.671875,1.8125 2.25,0.546875 2.765625,-0.546875 2.875,-1.65625 2.875,-2.5 Z m 0,0"
           transform="translate(194.103,110.99)"
           id="path17"
           style="fill:#463285;stroke:none" />
      </g>
    </g>
    <text
       xml:space="preserve"
       style="font-size:29.3333px;font-family:'CMU Concrete';-inkscape-font-specification:'CMU Concrete';text-align:center;text-anchor:middle;fill:#463285;stroke:none;stroke-width:1.5;stroke-miterlimit:3.9"
       x="425.88708"
       y="528.17474"
       id="text1"><tspan
         sodipodi:role="line"
         id="tspan1"
         x="425.88708"
         y="528.17474"
         style="font-size:29.3333px">S</tspan></text>
  </g>
</svg>
