<?xml version="1.0" encoding="UTF-8" standalone="no"?>
<svg
   version="1.0"
   width="750px"
   height="700px"
   viewBox="0 0 750 700"
   id="svg12"
   sodipodi:docname="Integral_as_region_under_curve.svg"
   inkscape:version="1.3.2 (091e20ef0f, 2023-11-25)"
   xmlns:inkscape="http://www.inkscape.org/namespaces/inkscape"
   xmlns:sodipodi="http://sodipodi.sourceforge.net/DTD/sodipodi-0.dtd"
   xmlns="http://www.w3.org/2000/svg"
   xmlns:svg="http://www.w3.org/2000/svg"
   xmlns:ns4="http://wanglongqi.github.io/WriteTeX">
  <sodipodi:namedview
     id="namedview12"
     pagecolor="#ffffff"
     bordercolor="#000000"
     borderopacity="0.25"
     inkscape:showpageshadow="2"
     inkscape:pageopacity="0.0"
     inkscape:pagecheckerboard="0"
     inkscape:deskcolor="#d1d1d1"
     inkscape:zoom="0.39866667"
     inkscape:cx="398.82943"
     inkscape:cy="-82.77592"
     inkscape:window-width="1920"
     inkscape:window-height="1011"
     inkscape:window-x="0"
     inkscape:window-y="0"
     inkscape:window-maximized="1"
     inkscape:current-layer="g7" />
  <defs
     id="defs1">
    <marker
       style="overflow:visible"
       id="ArrowWide"
       refX="0"
       refY="0"
       orient="auto-start-reverse"
       inkscape:stockid="Wide arrow"
       markerWidth="1"
       markerHeight="1"
       viewBox="0 0 1 1"
       inkscape:isstock="true"
       inkscape:collect="always"
       preserveAspectRatio="xMidYMid">
      <path
         style="fill:none;stroke:context-stroke;stroke-width:1;stroke-linecap:butt"
         d="M 3,-3 0,0 3,3"
         transform="rotate(180,0.125,0)"
         sodipodi:nodetypes="ccc"
         id="path13" />
    </marker>
  </defs>
  <g
     style="stroke:#463285;stroke-width:4;stroke-linecap:butt;stroke-linejoin:miter;fill-rule:evenodd"
     id="g7">
    <path
       style="fill:#e9e9f4;stroke:#6a2450"
       d="M 237.6,188.8 C 279.5,201.3 335.4,235 386,263.1 461.5,305 537.6,335.2 636.9,303.3 L 638,571.3 237.6,570.2 237.6,188.8 z"
       id="path1" />
    <path
       style="fill:#000000;stroke:#463285;marker-end:url(#ArrowWide)"
       d="M 46.88,571.3 687.3,572.5"
       id="path2" />
    <path
       style="fill:#000000;stroke:#463285;marker-start:url(#ArrowWide)"
       d="M 107.2,41.154415 106,640.52442 v -22.04"
       id="path3" />
    <path
       style="fill:none;stroke:#463285"
       d="M 636.3,303.3 C 668.1,293.8 686,287 713.7,274.6"
       id="path4" />
    <path
       style="fill:none;stroke:#463285"
       d="M 11.22,241.4 C 73.07,198.8 137.7,161.3 238,188.7"
       id="path5" />
    <text
       xml:space="preserve"
       style="font-size:64px;font-family:'CMU Concrete';-inkscape-font-specification:'CMU Concrete';text-align:center;text-anchor:middle;fill:#463285;stroke:none;stroke-width:1.5;stroke-miterlimit:3.9"
       x="441.66751"
       y="462.67505"
       id="text13"><tspan
         sodipodi:role="line"
         id="tspan13"
         x="441.66751"
         y="462.67505">S</tspan></text>
    <g
       ns4:text="\(f(x)\)"
       transform="matrix(5.5055663,0,0,5.5055663,-670.75401,-412.21081)"
       id="g18"
       style="fill:#463285;stroke:none">
      <g
         fill="#000000"
         fill-opacity="1"
         id="g14"
         style="fill:#463285;stroke:none">
        <path
           d="m 3.65625,-3.984375 h 0.859375 c 0.203125,0 0.296875,0 0.296875,-0.203125 0,-0.109375 -0.09375,-0.109375 -0.265625,-0.109375 H 3.71875 L 3.921875,-5.4375 c 0.046875,-0.203125 0.1875,-0.90625 0.25,-1.03125 0.078125,-0.1875 0.25,-0.34375 0.46875,-0.34375 0.03125,0 0.296875,0 0.484375,0.1875 -0.4375,0.03125 -0.546875,0.390625 -0.546875,0.53125 0,0.234375 0.1875,0.359375 0.375,0.359375 C 5.21875,-5.734375 5.5,-5.96875 5.5,-6.34375 c 0,-0.453125 -0.453125,-0.6875 -0.859375,-0.6875 -0.34375,0 -0.96875,0.1875 -1.265625,1.171875 -0.0625,0.203125 -0.09375,0.3125 -0.328125,1.5625 h -0.6875 c -0.203125,0 -0.3125,0 -0.3125,0.1875 0,0.125 0.09375,0.125 0.28125,0.125 h 0.65625 L 2.25,-0.046875 c -0.1875,0.96875 -0.359375,1.875 -0.875,1.875 -0.046875,0 -0.28125,0 -0.484375,-0.1875 C 1.359375,1.609375 1.453125,1.25 1.453125,1.109375 1.453125,0.875 1.265625,0.75 1.078125,0.75 0.8125,0.75 0.53125,0.984375 0.53125,1.359375 c 0,0.4375 0.4375,0.6875 0.84375,0.6875 0.546875,0 0.953125,-0.59375 1.125,-0.96875 0.328125,-0.625 0.546875,-1.828125 0.5625,-1.90625 z m 0,0"
           transform="translate(178.585,110.99)"
           id="path14"
           style="fill:#463285;stroke:none" />
      </g>
      <g
         fill="#000000"
         fill-opacity="1"
         id="g15"
         style="fill:#463285;stroke:none">
        <path
           d="m 3.296875,2.390625 c 0,-0.03125 0,-0.046875 -0.171875,-0.21875 C 1.890625,0.921875 1.5625,-0.96875 1.5625,-2.5 c 0,-1.734375 0.375,-3.46875 1.609375,-4.703125 0.125,-0.125 0.125,-0.140625 0.125,-0.171875 0,-0.078125 -0.03125,-0.109375 -0.09375,-0.109375 -0.109375,0 -1,0.6875 -1.59375,1.953125 -0.5,1.09375 -0.625,2.203125 -0.625,3.03125 0,0.78125 0.109375,1.984375 0.65625,3.125 C 2.25,1.84375 3.09375,2.5 3.203125,2.5 c 0.0625,0 0.09375,-0.03125 0.09375,-0.109375 z m 0,0"
           transform="translate(184.534,110.99)"
           id="path15"
           style="fill:#463285;stroke:none" />
      </g>
      <g
         fill="#000000"
         fill-opacity="1"
         id="g16"
         style="fill:#463285;stroke:none">
        <path
           d="M 3.328125,-3.015625 C 3.390625,-3.265625 3.625,-4.1875 4.3125,-4.1875 c 0.046875,0 0.296875,0 0.5,0.125 C 4.53125,-4 4.34375,-3.765625 4.34375,-3.515625 c 0,0.15625 0.109375,0.34375 0.375,0.34375 0.21875,0 0.53125,-0.171875 0.53125,-0.578125 0,-0.515625 -0.578125,-0.65625 -0.921875,-0.65625 -0.578125,0 -0.921875,0.53125 -1.046875,0.75 -0.25,-0.65625 -0.78125,-0.75 -1.078125,-0.75 -1.03125,0 -1.609375,1.28125 -1.609375,1.53125 0,0.109375 0.109375,0.109375 0.125,0.109375 0.078125,0 0.109375,-0.03125 0.125,-0.109375 0.34375,-1.0625 1,-1.3125 1.34375,-1.3125 0.1875,0 0.53125,0.09375 0.53125,0.671875 0,0.3125 -0.171875,0.96875 -0.53125,2.375 -0.15625,0.609375 -0.515625,1.03125 -0.953125,1.03125 -0.0625,0 -0.28125,0 -0.5,-0.125 0.25,-0.0625 0.46875,-0.265625 0.46875,-0.546875 0,-0.265625 -0.21875,-0.34375 -0.359375,-0.34375 -0.3125,0 -0.546875,0.25 -0.546875,0.578125 0,0.453125 0.484375,0.65625 0.921875,0.65625 0.671875,0 1.03125,-0.703125 1.046875,-0.75 0.125,0.359375 0.484375,0.75 1.078125,0.75 1.03125,0 1.59375,-1.28125 1.59375,-1.53125 0,-0.109375 -0.078125,-0.109375 -0.109375,-0.109375 -0.09375,0 -0.109375,0.046875 -0.140625,0.109375 -0.328125,1.078125 -1,1.3125 -1.3125,1.3125 -0.390625,0 -0.546875,-0.3125 -0.546875,-0.65625 0,-0.21875 0.046875,-0.4375 0.15625,-0.875 z m 0,0"
           transform="translate(188.409,110.99)"
           id="path16"
           style="fill:#463285;stroke:none" />
      </g>
      <g
         fill="#000000"
         fill-opacity="1"
         id="g17"
         style="fill:#463285;stroke:none">
        <path
           d="m 2.875,-2.5 c 0,-0.765625 -0.109375,-1.96875 -0.65625,-3.109375 -0.59375,-1.21875 -1.453125,-1.875 -1.546875,-1.875 -0.0625,0 -0.109375,0.046875 -0.109375,0.109375 0,0.03125 0,0.046875 0.1875,0.234375 0.984375,0.984375 1.546875,2.5625 1.546875,4.640625 0,1.71875 -0.359375,3.46875 -1.59375,4.71875 C 0.5625,2.34375 0.5625,2.359375 0.5625,2.390625 0.5625,2.453125 0.609375,2.5 0.671875,2.5 0.765625,2.5 1.671875,1.8125 2.25,0.546875 2.765625,-0.546875 2.875,-1.65625 2.875,-2.5 Z m 0,0"
           transform="translate(194.103,110.99)"
           id="path17"
           style="fill:#463285;stroke:none" />
      </g>
    </g>
  </g>
</svg>
